<svg xmlns="http://www.w3.org/2000/svg" xmlns:xlink="http://www.w3.org/1999/xlink" width="100" zoomAndPan="magnify" viewBox="0 0 75 74.999997" height="100" preserveAspectRatio="xMidYMid meet" version="1.0"><defs><g/></defs><g fill="#000000" fill-opacity="1"><g transform="translate(17.414063, 58.891297)"><g><path d="M 32.484375 -23.8125 C 34.304688 -22.71875 35.695312 -21.320312 36.65625 -19.625 C 37.613281 -17.9375 38.09375 -15.984375 38.09375 -13.765625 C 38.09375 -11.671875 37.59375 -9.722656 36.59375 -7.921875 C 35.59375 -6.117188 34.175781 -4.519531 32.34375 -3.125 C 30.695312 -1.863281 28.816406 -0.894531 26.703125 -0.21875 C 24.597656 0.445312 22.367188 0.800781 20.015625 0.84375 C 17.671875 0.84375 15.429688 0.519531 13.296875 -0.125 C 11.171875 -0.78125 9.28125 -1.757812 7.625 -3.0625 C 5.144531 -4.9375 3.453125 -7.195312 2.546875 -9.84375 L 11.671875 -14.09375 C 11.671875 -13.65625 11.820312 -13.109375 12.125 -12.453125 C 12.4375 -11.804688 12.914062 -11.175781 13.5625 -10.5625 C 14.21875 -9.957031 15.066406 -9.4375 16.109375 -9 C 17.148438 -8.5625 18.429688 -8.34375 19.953125 -8.34375 C 21.171875 -8.34375 22.25 -8.492188 23.1875 -8.796875 C 24.125 -9.109375 24.90625 -9.488281 25.53125 -9.9375 C 26.164062 -10.394531 26.644531 -10.914062 26.96875 -11.5 C 27.289062 -12.09375 27.453125 -12.691406 27.453125 -13.296875 C 27.453125 -13.992188 27.222656 -14.644531 26.765625 -15.25 C 26.316406 -15.863281 25.613281 -16.347656 24.65625 -16.703125 C 22.914062 -17.304688 21.078125 -17.8125 19.140625 -18.21875 C 17.203125 -18.632812 15.320312 -19.15625 13.5 -19.78125 C 11.675781 -20.414062 9.976562 -21.253906 8.40625 -22.296875 C 6.84375 -23.347656 5.609375 -24.804688 4.703125 -26.671875 C 3.867188 -28.328125 3.453125 -30.085938 3.453125 -31.953125 C 3.453125 -34.046875 3.941406 -36.066406 4.921875 -38.015625 C 5.898438 -39.972656 7.238281 -41.628906 8.9375 -42.984375 C 10.539062 -44.242188 12.34375 -45.207031 14.34375 -45.875 C 16.34375 -46.550781 18.453125 -46.890625 20.671875 -46.890625 C 22.890625 -46.890625 25.007812 -46.5625 27.03125 -45.90625 C 29.050781 -45.257812 30.867188 -44.304688 32.484375 -43.046875 C 34.046875 -41.867188 35.285156 -40.5 36.203125 -38.9375 L 28.765625 -33.84375 C 27.847656 -35.101562 26.703125 -36.113281 25.328125 -36.875 C 23.960938 -37.632812 22.429688 -38.015625 20.734375 -38.015625 C 18.390625 -38.015625 16.578125 -37.492188 15.296875 -36.453125 C 14.015625 -35.410156 13.375 -34.039062 13.375 -32.34375 C 13.375 -31.5625 13.726562 -30.863281 14.4375 -30.25 C 15.15625 -29.644531 16.09375 -29.101562 17.25 -28.625 C 18.40625 -28.144531 19.695312 -27.722656 21.125 -27.359375 C 22.5625 -26.992188 23.984375 -26.625 25.390625 -26.25 C 26.804688 -25.882812 28.144531 -25.503906 29.40625 -25.109375 C 30.675781 -24.710938 31.703125 -24.28125 32.484375 -23.8125 Z M 32.484375 -23.8125 "/></g></g></g></svg>